# xmcd
#
# Track frame offsets: 
#        150
#        3835
#        18013
#        39029
#        60355
#        65069
#        84133
#        99870
#        121050
#
# Disc length: 1816 seconds
#
# Revision: 0
# Processed by: cddbd v1.5.2PL0 Copyright (c) Steve Scherf et al.
# Submitted via: ExactAudioCopy v0.99pb4
#
DISCID=4f071609
DTITLE=Moot Davis - Live At Studio One WETS - FM 89.5
DYEAR=2002
DGENRE=Country
TTITLE0=Introductio By Dave Carter
TTITLE1=Whiskey Town
TTITLE2=Way Down Town
TTITLE3=The Highway Kind
TTITLE4=A Few Words From Johhny Cash
TTITLE5=Thanks For Breakin' My Heart
TTITLE6=Mind Your Own Business
TTITLE7=Don't Let Your Reckless Heart Go To Waste
TTITLE8=Midnight Train
EXTD=
EXTT0=
EXTT1=
EXTT2=
EXTT3=
EXTT4=
EXTT5=
EXTT6=
EXTT7=
EXTT8=
PLAYORDER=
